<svg xmlns="http://www.w3.org/2000/svg" viewBox="0 0 64 64" width="64" height="64" role="img" aria-label="ChessCoin"><defs><radialGradient id="ccFace" cx="35%" cy="30%" r="80%"><stop offset="0%" stop-color="#F9D976"></stop><stop offset="45%" stop-color="#F0C85A"></stop><stop offset="80%" stop-color="#D4A843"></stop><stop offset="100%" stop-color="#A07830"></stop></radialGradient><linearGradient id="ccRim" x1="0" y1="0" x2="0" y2="1"><stop offset="0%" stop-color="#FCE49A"></stop><stop offset="50%" stop-color="#D4A843"></stop><stop offset="100%" stop-color="#7A5820"></stop></linearGradient><radialGradient id="ccInset" cx="50%" cy="50%" r="50%"><stop offset="70%" stop-color="#A07830" stop-opacity="0"></stop><stop offset="100%" stop-color="#5C4318" stop-opacity=".6"></stop></radialGradient></defs><circle cx="32" cy="32" r="31" fill="url(#ccRim)"></circle><circle cx="32" cy="32" r="27" fill="url(#ccFace)"></circle><circle cx="32" cy="32" r="27" fill="url(#ccInset)"></circle><circle cx="32" cy="32" r="26" fill="none" stroke="#7A5820" stroke-width=".6" opacity=".5"></circle><circle cx="32" cy="32" r="25.2" fill="none" stroke="#FCE49A" stroke-width=".4" opacity=".55"></circle><g transform="translate(32 34)" fill="#5C4318"><path d="M -10 10 C -10 8 -9 7 -7.5 6.5 L -8 3 C -8.5 1.5 -8 -0.5 -6.5 -1.5 L -8 -3 C -9 -4.5 -8.5 -6.5 -7 -7.5 L -2 -12 C -0.5 -13 1.5 -13.5 3 -13 L 3 -14.5 C 3 -15.2 3.5 -15.5 4 -15.3 L 5.2 -14.8 C 5.7 -14.6 5.9 -14 5.7 -13.5 L 5 -12 C 7 -11 8.5 -8.5 9 -6 L 10 -1 C 10.3 1.5 10 3.8 9.3 5.5 L 9 7 L 9.8 10 Z"></path><circle cx="1" cy="-7" r="1" fill="#F0C85A"></circle></g><ellipse cx="22" cy="18" rx="8" ry="3.5" fill="#FFF3C4" opacity=".35"></ellipse></svg>