<svg width="27" height="35" viewBox="0 0 27 35" fill="none" xmlns="http://www.w3.org/2000/svg">
<path d="M1.15259 30.0872C1.15259 32.6868 3.39206 33.2163 4.42101 33.1561H22.5789C23.6079 33.2163 25.8473 32.6868 25.8473 30.0872C25.8473 27.6579 23.8918 27.0672 22.7958 27.0985C22.6538 27.1025 22.5105 27.0806 22.3853 27.0139C20.1877 25.8441 19.6483 24.2599 18.7657 22.5051C18.2801 21.5395 17.822 19.9504 17.5492 18.9805C17.4293 18.554 17.7069 18.0822 18.1131 17.9005C20.2818 16.9308 22.5789 14.0417 22.5789 9.86808C22.5789 5.17435 18.221 1.20264 13.5 1.20264C8.7789 1.20264 4.42101 5.17435 4.42101 9.86808C4.42101 14.0417 6.71812 16.9308 8.88678 17.9005C9.29305 18.0822 9.57062 18.554 9.45068 18.9805C9.17793 19.9504 8.71978 21.5395 8.23417 22.5051C7.35164 24.2599 6.81226 25.8441 4.61466 27.0139C4.48943 27.0806 4.34608 27.1025 4.20409 27.0985C3.10816 27.0672 1.15259 27.6579 1.15259 30.0872Z" fill="#01010C" stroke="white" stroke-width="2.2" stroke-linecap="round" stroke-linejoin="round"></path>
</svg>