<svg width="33" height="35" viewBox="0 0 33 35" fill="none" xmlns="http://www.w3.org/2000/svg">
<path d="M5.08119 30.3362C5.08119 32.4545 7.06703 33.1017 8.05997 33.1605H24.9399C25.9329 33.1017 27.9187 32.4545 27.9187 30.3362C27.9187 28.2179 26.5948 27.6883 25.4364 27.6883C32.056 23.6283 31.394 16.3909 30.4011 14.0961C29.4082 11.8012 26.0984 7.74125 19.8098 10.3891C19.3133 9.85953 19.1478 9.75361 18.4858 9.32996V8.62386H20.1407C20.8027 8.62387 21.6301 7.91775 21.6301 6.32905C21.6301 4.74034 20.4717 3.68119 18.8168 4.03421C19.0926 3.03392 19.0154 1.06864 16.4999 1.20986C13.9845 1.06864 13.9073 3.03392 14.1831 4.03421C12.5282 3.68119 11.3697 4.74034 11.3697 6.32905C11.3697 7.91775 12.1972 8.62387 12.8592 8.62386H14.5141V9.32996C13.8521 9.75361 13.6866 9.85953 13.1901 10.3891C6.90152 7.74125 3.59172 11.8012 2.59881 14.0961C1.60589 16.3909 0.943897 23.6283 7.56354 27.6883C6.40511 27.6883 5.08119 28.2179 5.08119 30.3362Z" fill="#01010C"></path>
<path d="M8.05997 33.1605L7.9949 34.2586L8.02741 34.2605H8.05997V33.1605ZM7.56354 27.6883V28.7883C8.05598 28.7883 8.48842 28.4611 8.62218 27.9871C8.75594 27.5132 8.55843 27.0081 8.13865 26.7507L7.56354 27.6883ZM2.59881 14.0961L3.60836 14.5329L3.60836 14.5329L2.59881 14.0961ZM13.1901 10.3891L12.7633 11.4029C13.1874 11.5815 13.6779 11.4772 13.9926 11.1414L13.1901 10.3891ZM14.5141 9.32996L15.107 10.2565C15.4229 10.0543 15.6141 9.70504 15.6141 9.32996H14.5141ZM14.5141 8.62386H15.6141C15.6141 8.01635 15.1216 7.52386 14.5141 7.52386V8.62386ZM12.8592 8.62386L12.8592 7.52386L12.8591 7.52386L12.8592 8.62386ZM14.1831 4.03421L13.9536 5.11001C14.3294 5.19018 14.7198 5.06841 14.9835 4.7888C15.2471 4.50919 15.3457 4.11227 15.2435 3.74181L14.1831 4.03421ZM16.4999 1.20986L16.4383 2.30813L16.4999 2.31159L16.5616 2.30813L16.4999 1.20986ZM24.9399 33.1605V34.2605H24.9725L25.005 34.2586L24.9399 33.1605ZM25.4364 27.6883L24.8612 26.7507C24.4415 27.0081 24.244 27.5132 24.3777 27.9871C24.5115 28.4611 24.9439 28.7883 25.4364 28.7883V27.6883ZM30.4011 14.0961L31.4106 13.6592L31.4106 13.6592L30.4011 14.0961ZM19.8098 10.3891L19.0073 11.1414C19.322 11.4772 19.8125 11.5815 20.2366 11.4029L19.8098 10.3891ZM18.4858 9.32996H17.3858C17.3858 9.70504 17.577 10.0543 17.8929 10.2565L18.4858 9.32996ZM18.4858 8.62386V7.52386C17.8783 7.52386 17.3858 8.01635 17.3858 8.62386H18.4858ZM20.1407 8.62386L20.1408 7.52386H20.1407V8.62386ZM18.8168 4.03421L17.7564 3.74181C17.6542 4.11227 17.7528 4.50919 18.0164 4.7888C18.2801 5.06841 18.6705 5.19018 19.0463 5.11001L18.8168 4.03421ZM8.12504 32.0625C7.78153 32.0421 7.24575 31.9109 6.82859 31.6192C6.45907 31.3608 6.18119 30.9865 6.18119 30.3362H3.98119C3.98119 31.8042 4.69624 32.8126 5.56787 33.4221C6.39186 33.9983 7.34548 34.2201 7.9949 34.2586L8.12504 32.0625ZM6.18119 30.3362C6.18119 29.5194 6.42534 29.2022 6.59288 29.0623C6.79799 28.8911 7.12766 28.7883 7.56354 28.7883V26.5883C6.84099 26.5883 5.92949 26.7503 5.18303 27.3735C4.399 28.028 3.98119 29.0347 3.98119 30.3362H6.18119ZM8.13865 26.7507C5.12224 24.9006 3.7888 22.356 3.30372 20.0077C2.80838 17.6098 3.20791 15.4584 3.60836 14.5329L1.58925 13.6592C0.996792 15.0285 0.568864 17.6433 1.14921 20.4528C1.73982 23.3119 3.3852 26.416 6.98843 28.626L8.13865 26.7507ZM3.60836 14.5329C4.03712 13.5419 4.97296 12.1719 6.44512 11.3493C7.86039 10.5586 9.90199 10.1981 12.7633 11.4029L13.617 9.37531C10.1897 7.93221 7.43206 8.27781 5.37205 9.42879C3.36893 10.548 2.15341 12.3554 1.58925 13.6592L3.60836 14.5329ZM13.9926 11.1414C14.2247 10.8939 14.346 10.7815 14.4678 10.6862C14.6042 10.5795 14.7617 10.4775 15.107 10.2565L13.9211 8.40346C13.6045 8.60609 13.3482 8.76884 13.1123 8.9534C12.8617 9.14941 12.6521 9.35473 12.3876 9.63679L13.9926 11.1414ZM15.6141 9.32996V8.62386H13.4141V9.32996H15.6141ZM14.5141 7.52386H12.8592V9.72386H14.5141V7.52386ZM12.8591 7.52386C13.0524 7.52386 12.4697 7.59184 12.4697 6.32905H10.2697C10.2697 8.24365 11.342 9.72389 12.8592 9.72386L12.8591 7.52386ZM12.4697 6.32905C12.4697 5.80197 12.6568 5.47016 12.8655 5.29391C13.065 5.12544 13.4082 4.99365 13.9536 5.11001L14.4126 2.95842C13.3031 2.72175 12.2396 2.94302 11.4461 3.61305C10.6619 4.2753 10.2697 5.26741 10.2697 6.32905H12.4697ZM15.2435 3.74181C15.1443 3.38222 15.1474 2.94854 15.2787 2.68578C15.3306 2.58192 15.4037 2.49845 15.5336 2.43293C15.6755 2.36128 15.9485 2.28063 16.4383 2.30813L16.5616 0.111587C15.7936 0.0684736 15.1137 0.180528 14.5423 0.46891C13.9588 0.763418 13.5582 1.20731 13.3109 1.70215C12.8437 2.63681 12.946 3.68591 13.1226 4.32661L15.2435 3.74181ZM25.005 34.2586C25.6544 34.2201 26.608 33.9983 27.432 33.4221C28.3037 32.8126 29.0187 31.8042 29.0187 30.3362H26.8187C26.8187 30.9865 26.5408 31.3608 26.1713 31.6192C25.7541 31.9109 25.2184 32.0421 24.8749 32.0625L25.005 34.2586ZM29.0187 30.3362C29.0187 29.0347 28.6009 28.028 27.8169 27.3735C27.0704 26.7503 26.1589 26.5883 25.4364 26.5883V28.7883C25.8722 28.7883 26.2019 28.8911 26.407 29.0623C26.5746 29.2022 26.8187 29.5194 26.8187 30.3362H29.0187ZM26.0115 28.626C29.6147 26.416 31.2601 23.3119 31.8507 20.4528C32.431 17.6433 32.0031 15.0285 31.4106 13.6592L29.3915 14.5329C29.792 15.4584 30.1915 17.6098 29.6962 20.0077C29.2111 22.356 27.8777 24.9006 24.8612 26.7507L26.0115 28.626ZM31.4106 13.6592C30.8465 12.3554 29.631 10.548 27.6278 9.42879C25.5678 8.27781 22.8102 7.93221 19.3829 9.37531L20.2366 11.4029C23.0979 10.1981 25.1395 10.5586 26.5548 11.3493C28.0269 12.1719 28.9628 13.5419 29.3915 14.5329L31.4106 13.6592ZM20.6123 9.63679C20.3478 9.35473 20.1382 9.14941 19.8876 8.9534C19.6517 8.76884 19.3954 8.60609 19.0788 8.40346L17.8929 10.2565C18.2382 10.4775 18.3957 10.5795 18.5321 10.6862C18.6539 10.7815 18.7752 10.8939 19.0073 11.1414L20.6123 9.63679ZM19.5858 9.32996V8.62386H17.3858V9.32996H19.5858ZM18.4858 9.72386H20.1407V7.52386H18.4858V9.72386ZM20.1407 9.72386C21.6579 9.72389 22.7301 8.24365 22.7301 6.32905H20.5301C20.5301 7.59185 19.9475 7.52386 20.1408 7.52386L20.1407 9.72386ZM22.7301 6.32905C22.7301 5.26741 22.338 4.2753 21.5538 3.61305C20.7603 2.94302 19.6968 2.72175 18.5873 2.95842L19.0463 5.11001C19.5917 4.99365 19.9349 5.12544 20.1344 5.29391C20.3431 5.47016 20.5301 5.80197 20.5301 6.32905H22.7301ZM19.8772 4.32661C20.0539 3.6859 20.1562 2.63679 19.689 1.70214C19.4417 1.2073 19.0411 0.763414 18.4576 0.468909C17.8862 0.180528 17.2062 0.0684736 16.4383 0.111587L16.5616 2.30813C17.0514 2.28063 17.3243 2.36128 17.4663 2.43293C17.5961 2.49846 17.6693 2.58193 17.7212 2.68579C17.8525 2.94855 17.8555 3.38223 17.7564 3.74181L19.8772 4.32661ZM24.9399 32.0605H8.05997V34.2605H24.9399V32.0605Z" fill="white"></path>
</svg>