<svg width="33" height="35" viewBox="0 0 33 35" fill="none" xmlns="http://www.w3.org/2000/svg">
<path d="M7.91659 33.1605H16.5902H25.0833C26.288 33.1605 28.6568 32.4503 28.5164 29.9647C28.376 27.4791 25.9867 27.124 24.7218 26.9465C26.1674 25.8812 27.7937 23.7507 28.1551 19.6672C28.375 17.1816 28.1549 13.6307 28.6971 10.79C29.0584 9.90228 29.962 10.2574 30.8655 9.36965C31.7689 8.48193 31.9266 6.98047 31.5883 5.99635C31.2297 4.95321 30.4274 4.133 29.0585 4.04334C27.6897 3.95367 25.7698 4.61148 25.6252 6.88403V8.30438C24.7217 8.95538 23.8182 9.72473 22.9147 11.3226C22.8545 10.2574 22.5533 8.48193 22.1919 7.06158C23.2761 6.17386 23.6375 5.46368 23.6375 4.22088C23.6375 2.97807 22.9147 1.20264 20.5656 1.20264C18.2165 1.20264 17.4937 2.97807 17.4937 4.22088C17.4937 5.46369 17.8551 6.17386 18.3972 6.88403C18.3972 6.88403 17.6744 8.30438 17.313 9.1921C16.9723 10.029 16.5904 11.1451 16.5904 11.1451C16.5904 11.1451 16.0276 10.029 15.6869 9.1921C15.3255 8.30438 14.6027 6.88403 14.6027 6.88403C15.1448 6.17386 15.5062 5.46369 15.5062 4.22088C15.5062 2.97807 14.7834 1.20264 12.4343 1.20264C10.0852 1.20264 9.36237 2.97807 9.36237 4.22088C9.36237 5.46368 9.72377 6.17386 10.808 7.06158C10.4466 8.48193 10.1454 10.2574 10.0852 11.3226C9.18169 9.72473 8.27819 8.95538 7.37469 8.30438V6.88403C7.23013 4.61148 5.31023 3.95367 3.94138 4.04334C2.57253 4.133 1.77018 4.95321 1.41157 5.99635C1.07325 6.98047 1.23095 8.48193 2.13438 9.36965C3.03785 10.2574 3.94147 9.90228 4.30276 10.79C4.84497 13.6307 4.62488 17.1816 4.84483 19.6672C5.20619 23.7507 6.83249 25.8812 8.27811 26.9465C7.01321 27.124 4.62386 27.4791 4.48348 29.9647C4.3431 32.4503 6.71192 33.1605 7.91659 33.1605Z" fill="#01010C" stroke="white" stroke-width="2.2" stroke-linejoin="round"></path>
</svg>