<svg width="29" height="31" viewBox="0 0 29 31" fill="none" xmlns="http://www.w3.org/2000/svg">
<path d="M6.95892 29.2178H14.5793H22.0411C23.0995 29.2178 25.1807 28.5931 25.0573 26.4069C24.934 24.2207 22.8348 23.9084 21.7235 23.7522C22.9936 22.8153 24.4224 20.9414 24.7399 17.3498C24.9331 15.1636 24.7397 12.0404 25.2161 9.5419C25.5335 8.76111 26.3274 9.07346 27.1212 8.29263C27.9149 7.51184 28.0535 6.19125 27.7562 5.32566C27.4412 4.40818 26.7362 3.68676 25.5336 3.6079C24.331 3.52903 22.6442 4.1076 22.5172 6.10642V7.35568C21.7234 7.92826 20.9296 8.60495 20.1358 10.0104C20.0829 9.07342 19.8183 7.51184 19.5008 6.26258C20.4534 5.48179 20.7709 4.85716 20.7709 3.76406C20.7709 2.67095 20.1358 1.10938 18.072 1.10938C16.0082 1.10938 15.3731 2.67095 15.3731 3.76406C15.3731 4.85716 15.6906 5.48179 16.1669 6.10642C16.1669 6.10642 15.5319 7.35568 15.2143 8.13647C14.915 8.87255 14.5795 9.85421 14.5795 9.85421C14.5795 9.85421 14.085 8.87255 13.7857 8.13647C13.4682 7.35568 12.8331 6.10642 12.8331 6.10642C13.3094 5.48179 13.6269 4.85716 13.6269 3.76406C13.6269 2.67095 12.9919 1.10938 10.928 1.10938C8.86419 1.10938 8.22915 2.67095 8.22915 3.76406C8.22915 4.85716 8.54666 5.48179 9.49921 6.26258C9.18169 7.51184 8.91711 9.07342 8.86419 10.0104C8.0704 8.60495 7.27661 7.92826 6.48282 7.35568V6.10642C6.35581 4.1076 4.66905 3.52903 3.46642 3.6079C2.26378 3.68676 1.55886 4.40818 1.2438 5.32566C0.94656 6.19125 1.08511 7.51184 1.87884 8.29263C2.6726 9.07346 3.4665 8.76111 3.78391 9.5419C4.26029 12.0404 4.06692 15.1636 4.26016 17.3498C4.57764 20.9414 6.00646 22.8153 7.27654 23.7522C6.16524 23.9084 4.06602 24.2207 3.94269 26.4069C3.81936 28.5931 5.90053 29.2178 6.95892 29.2178Z" fill="#FFFFFF" stroke="#01010C" stroke-width="2.2" stroke-linejoin="round"></path>
</svg>