<svg width="27" height="32" viewBox="0 0 27 32" fill="none" xmlns="http://www.w3.org/2000/svg">
<path d="M5.32891 24.8573L12.6829 14.9106C10.6673 16.6472 6.11333 19.8678 3.36785 17.5942C0.62238 15.3207 2.36398 12.2262 4.34838 9.85792C7.12654 6.54235 7.58252 5.73291 6.96312 4.96351C5.00206 2.52758 7.18101 1.80581 8.10706 1.80583C10.5584 1.80583 14.1536 1.59536 16.7684 2.43759C22.1612 4.17466 24.1223 8.59521 24.4492 13.3317C24.7106 17.121 23.4142 22.8574 22.6515 25.173C23.7955 25.173 25.5931 25.8046 25.5931 27.8571C25.5931 29.9096 23.5776 30.5937 22.6515 30.5411H13.5L4.5118 30.5411C3.58575 30.5937 1.73364 30.0674 1.73364 27.6992C1.73364 25.3309 4.13048 24.8046 5.32891 24.8573Z" fill="#FFFFFF"></path>
<path d="M12.6829 14.9106L13.5674 15.5645C13.9004 15.1141 13.8417 14.4854 13.4311 14.1043C13.0206 13.7233 12.3892 13.7116 11.9648 14.0772L12.6829 14.9106ZM5.32891 24.8573L5.28065 25.9562L5.86543 25.9819L6.21341 25.5112L5.32891 24.8573ZM4.5118 30.5411L4.5118 29.4411L4.48057 29.4411L4.44939 29.4429L4.5118 30.5411ZM13.5 30.5411L13.5 31.6411H13.5V30.5411ZM22.6515 25.173L21.6067 24.8289C21.4964 25.1641 21.5535 25.5319 21.7603 25.8178C21.9672 26.1037 22.2986 26.273 22.6515 26.273V25.173ZM22.6515 30.5411L22.714 29.4429L22.6828 29.4411H22.6515V30.5411ZM24.4492 13.3317L25.5466 13.256L25.5466 13.256L24.4492 13.3317ZM16.7684 2.43759L16.4311 3.48462L16.7684 2.43759ZM8.10706 1.80583L8.10704 2.90583L8.10706 2.90583L8.10706 1.80583ZM6.96312 4.96351L7.81996 4.27371L7.81996 4.27371L6.96312 4.96351ZM4.34838 9.85792L3.50524 9.15144L3.50524 9.15144L4.34838 9.85792ZM3.36785 17.5942L4.06944 16.747L4.06944 16.747L3.36785 17.5942ZM11.7983 14.2566L4.4444 24.2033L6.21341 25.5112L13.5674 15.5645L11.7983 14.2566ZM5.37716 23.7583C4.63125 23.7256 3.51556 23.8647 2.54287 24.4115C1.50628 24.9942 0.633643 26.0542 0.633643 27.6992H2.83364C2.83364 26.9759 3.15943 26.5887 3.62087 26.3293C4.1462 26.034 4.82814 25.9363 5.28065 25.9562L5.37716 23.7583ZM0.633643 27.6992C0.633643 29.2137 1.24805 30.2771 2.12837 30.9175C2.95084 31.5158 3.90948 31.6771 4.57422 31.6393L4.44939 29.4429C4.18807 29.4577 3.75763 29.3822 3.42253 29.1384C3.14529 28.9368 2.83364 28.553 2.83364 27.6992H0.633643ZM4.5118 31.6411L13.5 31.6411L13.5 29.4411L4.5118 29.4411L4.5118 31.6411ZM22.6515 26.273C23.0546 26.273 23.5547 26.3906 23.9207 26.6467C24.2351 26.8666 24.4931 27.2091 24.4931 27.8571H26.6931C26.6931 26.4525 26.0523 25.453 25.1819 24.844C24.3631 24.2712 23.3925 24.073 22.6515 24.073V26.273ZM24.4931 27.8571C24.4931 28.4596 24.2223 28.8266 23.8514 29.0787C23.43 29.365 22.9335 29.4554 22.714 29.4429L22.5891 31.6393C23.2957 31.6795 24.2699 31.4541 25.0878 30.8983C25.9561 30.3083 26.6931 29.3071 26.6931 27.8571H24.4931ZM22.6515 29.4411H13.5V31.6411H22.6515V29.4411ZM23.6963 25.5171C24.0974 24.2995 24.6238 22.2338 25.0177 19.9957C25.4099 17.7678 25.6865 15.2833 25.5466 13.256L23.3518 13.4075C23.4734 15.1694 23.2324 17.4478 22.851 19.6143C22.4715 21.7706 21.9684 23.7309 21.6067 24.8289L23.6963 25.5171ZM25.5466 13.256C25.375 10.77 24.7705 8.28801 23.4394 6.1738C22.0949 4.03835 20.045 2.33737 17.1056 1.39057L16.4311 3.48462C18.8845 4.27488 20.5116 5.6527 21.5776 7.34593C22.657 9.06039 23.1965 11.1569 23.3518 13.4075L25.5466 13.256ZM17.1056 1.39057C15.6521 0.922385 13.9786 0.760297 12.4142 0.706524C10.8605 0.653117 9.27732 0.70583 8.10706 0.70583L8.10706 2.90583C9.38812 2.90583 10.8282 2.85331 12.3387 2.90523C13.8384 2.95678 15.2699 3.11057 16.4311 3.48462L17.1056 1.39057ZM8.10708 0.70583C7.75157 0.705824 7.3196 0.77189 6.90039 0.917748C6.48667 1.0617 5.99399 1.31547 5.61699 1.75561C5.21003 2.23073 4.99319 2.86309 5.09479 3.59392C5.18964 4.27623 5.5491 4.96121 6.10628 5.65331L7.81996 4.27371C7.39661 3.74785 7.29304 3.42913 7.27384 3.291C7.26138 3.2014 7.27945 3.19658 7.28786 3.18677C7.32622 3.14198 7.42934 3.06307 7.62335 2.99557C7.81186 2.92998 7.99953 2.90583 8.10704 2.90583L8.10708 0.70583ZM6.10628 5.65331C6.14994 5.70755 6.10687 5.6682 6.10656 5.59101C6.10644 5.56182 6.1155 5.64799 5.96127 5.93447C5.6416 6.52826 4.91559 7.46827 3.50524 9.15144L5.19152 10.5644C6.55932 8.93201 7.45038 7.80951 7.89839 6.97733C8.12801 6.55083 8.30855 6.08316 8.30654 5.58219C8.30434 5.03323 8.08599 4.60417 7.81996 4.27371L6.10628 5.65331ZM3.50524 9.15144C2.48841 10.365 1.42093 11.8887 1.01759 13.4935C0.810973 14.3156 0.769185 15.1954 1.02915 16.0721C1.29112 16.9555 1.83527 17.7533 2.66627 18.4415L4.06944 16.747C3.5277 16.2984 3.26 15.8568 3.13837 15.4466C3.01473 15.0296 3.01759 14.5615 3.15124 14.0297C3.42843 12.9268 4.22395 11.7191 5.19152 10.5644L3.50524 9.15144ZM2.66627 18.4415C4.53473 19.9887 6.89403 19.5499 8.72995 18.7683C10.6144 17.9661 12.3563 16.6439 13.4009 15.7439L11.9648 14.0772C10.9938 14.9139 9.45103 16.0703 7.86821 16.7441C6.23688 17.4386 4.94645 17.4733 4.06944 16.747L2.66627 18.4415Z" fill="#01010C"></path>
</svg>