<svg width="27" height="35" viewBox="0 0 27 35" fill="none" xmlns="http://www.w3.org/2000/svg">
<path d="M1.15259 30.1755C1.15259 32.8093 3.33154 33.1605 4.42101 33.1605H22.5789C23.6684 33.1605 25.8473 32.8093 25.8473 30.1755C25.8473 27.5416 23.85 27.0148 21.671 27.0148C23.85 23.8541 24.5763 20.869 22.9421 16.6548C22.4931 15.497 21.6008 14.2397 20.4842 12.9674C19.3417 11.6654 17.9643 10.3476 16.5868 9.10431C17.6763 8.40194 18.221 7.17279 18.221 5.59246C18.221 4.01212 16.9863 1.20264 13.5 1.20264C10.0136 1.20264 8.7789 4.01212 8.7789 5.59246C8.7789 7.17279 9.32364 8.40194 10.4131 9.10431C7.68943 11.5626 4.96626 14.3123 4.05785 16.6548C2.42364 20.869 3.14996 23.8541 5.3289 27.0148C3.14996 27.0148 1.15259 27.5416 1.15259 30.1755Z" fill="#01010C"/>
<path d="M5.3289 27.0148V28.1148C5.73765 28.1148 6.1127 27.8881 6.30276 27.5263C6.49282 27.1644 6.46655 26.727 6.23455 26.3904L5.3289 27.0148ZM4.05785 16.6548L5.08344 17.0525L5.08344 17.0525L4.05785 16.6548ZM10.4131 9.10431L11.1501 9.9209C11.4043 9.69149 11.5372 9.35681 11.5095 9.01553C11.4819 8.67426 11.2969 8.36531 11.0091 8.17979L10.4131 9.10431ZM21.671 27.0148L20.7654 26.3904C20.5334 26.727 20.5071 27.1644 20.6972 27.5263C20.8872 27.8881 21.2623 28.1148 21.671 28.1148V27.0148ZM22.9421 16.6548L23.9676 16.2571L23.9676 16.2571L22.9421 16.6548ZM16.5868 9.10431L15.9908 8.17979C15.703 8.36531 15.518 8.67426 15.4904 9.01553C15.4628 9.35681 15.5956 9.69149 15.8498 9.9209L16.5868 9.10431ZM20.4842 12.9674L21.311 12.2418L21.311 12.2418L20.4842 12.9674ZM12.6379 19.0247C12.2012 19.4471 12.1896 20.1434 12.6119 20.5801C13.0342 21.0169 13.7306 21.0285 14.1673 20.6062L12.6379 19.0247ZM4.42101 32.0605C3.9584 32.0605 3.38074 31.9798 2.95276 31.7177C2.6108 31.5082 2.25259 31.1245 2.25259 30.1755H0.0525879C0.0525879 31.8603 0.783853 32.9691 1.80373 33.5938C2.73759 34.1657 3.79415 34.2605 4.42101 34.2605V32.0605ZM2.25259 30.1755C2.25259 29.1919 2.59208 28.7881 2.9877 28.5518C3.49257 28.2502 4.28335 28.1148 5.3289 28.1148V25.9148C4.19551 25.9148 2.89814 26.0427 1.85958 26.663C0.711785 27.3486 0.0525879 28.5251 0.0525879 30.1755H2.25259ZM6.23455 26.3904C5.20324 24.8945 4.56809 23.5153 4.35133 22.0671C4.1357 20.6264 4.31993 19.0214 5.08344 17.0525L3.03226 16.2571C2.16156 18.5024 1.89185 20.4971 2.17556 22.3927C2.45814 24.2807 3.27562 25.9744 4.42326 27.6391L6.23455 26.3904ZM5.08344 17.0525C5.46719 16.0629 6.2732 14.906 7.37997 13.6503C8.47407 12.409 9.80015 11.1393 11.1501 9.9209L9.6761 8.28773C8.30239 9.52759 6.90504 10.8619 5.72954 12.1956C4.5667 13.5149 3.55692 14.9041 3.03226 16.2571L5.08344 17.0525ZM11.0091 8.17979C10.3236 7.73783 9.8789 6.92011 9.8789 5.59246H7.6789C7.6789 7.42548 8.32367 9.06605 9.81708 10.0288L11.0091 8.17979ZM9.8789 5.59246C9.8789 5.04499 10.1066 4.19877 10.6796 3.50609C11.2192 2.85386 12.091 2.30264 13.5 2.30264V0.102637C11.4226 0.102637 9.93387 0.95616 8.9845 2.10375C8.06859 3.21089 7.6789 4.55959 7.6789 5.59246H9.8789ZM22.5789 34.2605C23.2058 34.2605 24.2623 34.1657 25.1962 33.5938C26.2161 32.9691 26.9473 31.8603 26.9473 30.1755H24.7473C24.7473 31.1245 24.3891 31.5082 24.0472 31.7177C23.6192 31.9798 23.0415 32.0605 22.5789 32.0605V34.2605ZM26.9473 30.1755C26.9473 28.5251 26.2881 27.3486 25.1403 26.663C24.1018 26.0427 22.8044 25.9148 21.671 25.9148V28.1148C22.7166 28.1148 23.5073 28.2502 24.0122 28.5518C24.4078 28.7881 24.7473 29.1919 24.7473 30.1755H26.9473ZM22.5767 27.6391C23.7243 25.9744 24.5418 24.2807 24.8244 22.3927C25.1081 20.4971 24.8384 18.5024 23.9676 16.2571L21.9165 17.0525C22.68 19.0214 22.8642 20.6264 22.6486 22.0671C22.4318 23.5153 21.7967 24.8945 20.7654 26.3904L22.5767 27.6391ZM17.1828 10.0288C18.6762 9.06605 19.321 7.42548 19.321 5.59246H17.121C17.121 6.92011 16.6763 7.73783 15.9908 8.17979L17.1828 10.0288ZM19.321 5.59246C19.321 4.55959 18.9313 3.21089 18.0154 2.10375C17.066 0.95616 15.5773 0.102637 13.5 0.102637V2.30264C14.9089 2.30264 15.7807 2.85386 16.3203 3.50609C16.8933 4.19877 17.121 5.04498 17.121 5.59246H19.321ZM22.5789 32.0605H4.42101V34.2605H22.5789V32.0605ZM23.9676 16.2571C23.4488 14.9192 22.456 13.5466 21.311 12.2418L19.6574 13.6929C20.7456 14.9329 21.5373 16.0748 21.9165 17.0525L23.9676 16.2571ZM21.311 12.2418C20.127 10.8926 18.7132 9.54172 17.3238 8.28773L15.8498 9.9209C17.2154 11.1535 18.5564 12.4382 19.6574 13.6929L21.311 12.2418ZM19.7195 12.1766L12.6379 19.0247L14.1673 20.6062L21.2489 13.7581L19.7195 12.1766Z" fill="white"/>
</svg>
