<svg width="30" height="35" viewBox="0 0 30 35" fill="none" xmlns="http://www.w3.org/2000/svg">
<path d="M1.78943 29.7457C1.78943 32.6179 4.14995 33.2164 5.23943 33.1566H24.1236C25.2131 33.2164 27.5736 32.6179 27.5736 29.7457C27.5736 27.5134 25.3801 26.6912 23.7207 26.5198C23.069 26.4525 22.4894 25.9428 22.4894 25.295V18.2571C22.4894 17.6623 22.9772 17.18 23.5789 17.18H26.8473C27.449 17.18 27.9368 16.6978 27.9368 16.1029V2.27976C27.9368 1.68488 27.449 1.20264 26.8473 1.20264H21.2184C20.3105 1.20264 19.5842 2.02843 19.5842 3.17737C19.5842 2.02843 18.8578 1.20264 17.95 1.20264H11.4131C10.5052 1.20264 9.7789 2.02843 9.7789 3.17737C9.7789 2.02843 9.05259 1.20264 8.14469 1.20264H2.51574C1.91404 1.20264 1.42627 1.68488 1.42627 2.27976V16.1029C1.42627 16.6978 1.91404 17.18 2.51574 17.18H5.78416C6.38586 17.18 6.87364 17.6623 6.87364 18.2571V25.295C6.87364 25.9428 6.29411 26.4525 5.64237 26.5198C3.98296 26.6912 1.78943 27.5134 1.78943 29.7457Z" fill="#01010C"/>
<path d="M9.7789 3.17737V7.12683M9.7789 3.17737C9.7789 2.02843 9.05259 1.20264 8.14469 1.20264H2.51574C1.91404 1.20264 1.42627 1.68488 1.42627 2.27976V16.1029C1.42627 16.6978 1.91404 17.18 2.51574 17.18H5.78416C6.38586 17.18 6.87364 17.6623 6.87364 18.2571V25.295C6.87364 25.9428 6.29411 26.4525 5.64238 26.5198C3.98296 26.6912 1.78943 27.5134 1.78943 29.7457C1.78943 32.6179 4.14995 33.2164 5.23943 33.1566H24.1236C25.2131 33.2164 27.5736 32.6179 27.5736 29.7457C27.5736 27.5134 25.3801 26.6912 23.7207 26.5198C23.069 26.4525 22.4894 25.9428 22.4894 25.295V18.2571C22.4894 17.6623 22.9772 17.18 23.5789 17.18H26.8473C27.449 17.18 27.9368 16.6978 27.9368 16.1029V2.27976C27.9368 1.68488 27.449 1.20264 26.8473 1.20264H21.2184C20.3105 1.20264 19.5842 2.02843 19.5842 3.17737M9.7789 3.17737C9.7789 2.02843 10.5052 1.20264 11.4131 1.20264H17.95C18.8578 1.20264 19.5842 2.02843 19.5842 3.17737M19.5842 3.17737V7.12683" stroke="white" stroke-width="2.2" stroke-linecap="round" stroke-linejoin="round"/>
</svg>
