<svg width="30" height="35" viewBox="0 0 30 35" fill="none" xmlns="http://www.w3.org/2000/svg">
<path d="M5.42101 26.8413L13.5921 15.7894C11.3526 17.719 6.29259 21.2974 3.24206 18.7713C0.191533 16.2451 2.12665 12.8068 4.33153 10.1754C7.41838 6.4914 7.92502 5.59201 7.2368 4.73713C5.05785 2.03054 7.4789 1.22857 8.50785 1.22859C11.2315 1.22859 15.2263 0.994738 18.1315 1.93055C24.1235 3.86062 26.3026 8.77234 26.6657 14.0351C26.9563 18.2454 25.5157 24.6192 24.6684 27.1922C25.9394 27.1922 27.9368 27.8939 27.9368 30.1744C27.9368 32.455 25.6973 33.2152 24.6684 33.1567H14.5L4.51311 33.1567C3.48416 33.2151 1.42627 32.6304 1.42627 29.999C1.42627 27.3676 4.08943 26.7828 5.42101 26.8413Z" fill="#01010C"/>
<path d="M13.5921 15.7894L14.4766 16.4434C14.8096 15.9929 14.7509 15.3642 14.3403 14.9832C13.9298 14.6021 13.2984 14.5904 12.874 14.9561L13.5921 15.7894ZM5.42101 26.8413L5.37275 27.9402L5.95753 27.9659L6.30551 27.4952L5.42101 26.8413ZM4.51311 33.1567L4.51311 32.0567L4.48188 32.0567L4.4507 32.0584L4.51311 33.1567ZM14.5 33.1567L14.5 34.2567H14.5V33.1567ZM24.6684 27.1922L23.6236 26.8481C23.5132 27.1832 23.5703 27.551 23.7772 27.8369C23.984 28.1228 24.3155 28.2922 24.6684 28.2922V27.1922ZM24.6684 33.1567L24.7308 32.0584L24.6996 32.0567H24.6684V33.1567ZM26.6657 14.0351L25.5684 14.1109L25.5684 14.1109L26.6657 14.0351ZM18.1315 1.93055L17.7943 2.97757L17.7943 2.97757L18.1315 1.93055ZM8.50785 1.22859L8.50783 2.32859L8.50785 2.32859L8.50785 1.22859ZM7.2368 4.73713L8.09364 4.04733L7.2368 4.73713ZM4.33153 10.1754L3.48839 9.46888L3.48839 9.46888L4.33153 10.1754ZM3.24206 18.7713L3.94364 17.9241L3.94364 17.9241L3.24206 18.7713ZM12.7076 15.1355L4.5365 26.1874L6.30551 27.4952L14.4766 16.4434L12.7076 15.1355ZM5.46927 25.7424C4.65677 25.7067 3.44121 25.859 2.3853 26.4525C1.26548 27.082 0.32627 28.2225 0.32627 29.999H2.52627C2.52627 29.1441 2.91864 28.6765 3.4633 28.3703C4.07186 28.0283 4.85367 27.9174 5.37275 27.9402L5.46927 25.7424ZM0.32627 29.999C0.32627 31.645 0.992121 32.7889 1.93675 33.4761C2.82353 34.1211 3.85934 34.2956 4.57552 34.2549L4.4507 32.0584C4.13794 32.0762 3.63033 31.9875 3.23092 31.697C2.88937 31.4485 2.52627 30.9843 2.52627 29.999H0.32627ZM4.51311 34.2567L14.5 34.2567L14.5 32.0567L4.51311 32.0567L4.51311 34.2567ZM24.6684 28.2922C25.135 28.2922 25.7168 28.4273 26.1487 28.7294C26.5288 28.9954 26.8368 29.4124 26.8368 30.1744H29.0368C29.0368 28.6558 28.3461 27.5818 27.4098 26.9268C26.5252 26.3079 25.4728 26.0922 24.6684 26.0922V28.2922ZM26.8368 30.1744C26.8368 30.8909 26.51 31.334 26.0702 31.6328C25.58 31.9659 25.0018 32.0738 24.7308 32.0584L24.606 34.2549C25.3639 34.298 26.4199 34.055 27.3067 33.4525C28.2438 32.8157 29.0368 31.7384 29.0368 30.1744H26.8368ZM24.6684 32.0567H14.5V34.2567H24.6684V32.0567ZM25.7132 27.5362C26.1566 26.19 26.7402 23.9006 27.1771 21.4183C27.6123 18.9463 27.9176 16.1972 27.7631 13.9594L25.5684 14.1109C25.7045 16.0833 25.4348 18.6263 25.0104 21.037C24.5879 23.4374 24.0276 25.6214 23.6236 26.8481L25.7132 27.5362ZM27.7631 13.9594C27.5734 11.2103 26.9053 8.47393 25.4403 6.14701C23.962 3.79886 21.7078 1.92683 18.4688 0.883526L17.7943 2.97757C20.5473 3.86434 22.3786 5.41321 23.5786 7.31914C24.7919 9.2463 25.3949 11.5972 25.5684 14.1109L27.7631 13.9594ZM18.4688 0.883526C16.87 0.368552 15.024 0.188915 13.2894 0.12929C11.5654 0.0700326 9.81429 0.128591 8.50785 0.128591L8.50785 2.32859C9.92509 2.32859 11.5332 2.27022 13.2138 2.32799C14.8838 2.38539 16.4878 2.55674 17.7943 2.97757L18.4688 0.883526ZM8.50787 0.128591C8.12663 0.128585 7.66024 0.199662 7.20727 0.357268C6.75979 0.512964 6.234 0.785219 5.83393 1.2523C5.4039 1.75436 5.174 2.42212 5.28194 3.19853C5.38312 3.92642 5.7683 4.66716 6.37996 5.42693L8.09364 4.04733C7.61581 3.4538 7.48652 3.07932 7.46098 2.89561C7.44219 2.76043 7.47331 2.72021 7.50479 2.68346C7.56623 2.61173 7.70246 2.51434 7.93022 2.43509C8.1525 2.35775 8.3746 2.32859 8.50783 2.32859L8.50787 0.128591ZM6.37996 5.42693C6.44082 5.50254 6.40749 5.48483 6.40729 5.43386C6.40728 5.43087 6.4068 5.54782 6.23125 5.87391C5.86893 6.54691 5.05309 7.60151 3.48839 9.46888L5.17467 10.8818C6.69682 9.06525 7.67772 7.82817 8.16837 6.91677C8.41931 6.45065 8.60939 5.95222 8.60727 5.42503C8.60496 4.84987 8.37688 4.39916 8.09364 4.04733L6.37996 5.42693ZM3.48839 9.46888C2.36132 10.814 1.19033 12.4894 0.749194 14.2447C0.523671 15.142 0.479403 16.0966 0.760674 17.0452C1.04396 18.0006 1.63321 18.8672 2.54048 19.6185L3.94364 17.9241C3.32564 17.4123 3.01284 16.9018 2.8699 16.4198C2.72495 15.9309 2.73029 15.3879 2.88284 14.7809C3.19784 13.5276 4.09686 12.1681 5.17467 10.8818L3.48839 9.46888ZM2.54048 19.6185C4.56146 21.2921 7.12353 20.8269 9.15207 19.9633C11.2291 19.0791 13.1536 17.6192 14.3101 16.6228L12.874 14.9561C11.7911 15.8892 10.0658 17.1833 8.29033 17.9391C6.46638 18.7156 4.97318 18.7766 3.94364 17.9241L2.54048 19.6185Z" fill="white"/>
</svg>
