<svg width="25" height="32" viewBox="0 0 25 32" fill="none" xmlns="http://www.w3.org/2000/svg">
<path d="M1.38733 27.858C1.38733 30.2285 3.34838 30.5446 4.32891 30.5446H20.671C21.6515 30.5446 23.6126 30.2285 23.6126 27.858C23.6126 25.4875 21.815 25.0134 19.8539 25.0134C21.815 22.1688 22.4686 19.4822 20.9979 15.6894C20.5938 14.6474 19.7907 13.5159 18.7858 12.3707C17.7575 11.1989 16.5179 10.0129 15.2781 8.89398C16.2586 8.26185 16.7489 7.15561 16.7489 5.73331C16.7489 4.31101 15.6376 1.78247 12.5 1.78247C9.36228 1.78247 8.25101 4.31101 8.25101 5.73331C8.25101 7.15561 8.74128 8.26185 9.7218 8.89398C7.27049 11.1064 4.81963 13.5811 4.00207 15.6894C2.53128 19.4822 3.18496 22.1688 5.14601 25.0134C3.18496 25.0134 1.38733 25.4875 1.38733 27.858Z" fill="white"/>
<path d="M5.14601 25.0134V26.1134C5.55476 26.1134 5.92981 25.8868 6.11987 25.5249C6.30993 25.163 6.28366 24.7256 6.05166 24.3891L5.14601 25.0134ZM4.00207 15.6894L5.02765 16.0871L4.00207 15.6894ZM9.7218 8.89398L10.4588 9.71056C10.713 9.48115 10.8458 9.14647 10.8182 8.8052C10.7906 8.46392 10.6056 8.15498 10.3178 7.96945L9.7218 8.89398ZM19.8539 25.0134L18.9483 24.3891C18.7163 24.7256 18.69 25.163 18.8801 25.5249C19.0701 25.8868 19.4452 26.1134 19.8539 26.1134V25.0134ZM20.9979 15.6894L19.9723 16.0871L19.9723 16.0871L20.9979 15.6894ZM15.2781 8.89398L14.6821 7.96945C14.3943 8.15498 14.2093 8.46392 14.1817 8.8052C14.1541 9.14647 14.2869 9.48115 14.5411 9.71056L15.2781 8.89398ZM18.7858 12.3707L19.6126 11.6452L19.6126 11.6452L18.7858 12.3707ZM11.6477 17.7433C11.211 18.1656 11.1993 18.862 11.6216 19.2987C12.0439 19.7354 12.7403 19.7471 13.177 19.3248L11.6477 17.7433ZM4.32891 29.4446C3.92077 29.4446 3.42482 29.3726 3.06493 29.1522C2.79106 28.9844 2.48733 28.6753 2.48733 27.858H0.287329C0.287329 29.4112 0.964121 30.4453 1.91591 31.0283C2.78168 31.5585 3.75652 31.6446 4.32891 31.6446V29.4446ZM2.48733 27.858C2.48733 27.0062 2.77688 26.6813 3.09534 26.4911C3.52303 26.2357 4.20941 26.1134 5.14601 26.1134V23.9134C4.12157 23.9134 2.9286 24.0282 1.96722 24.6024C0.896592 25.2419 0.287329 26.3393 0.287329 27.858H2.48733ZM6.05166 24.3891C5.1293 23.0511 4.56678 21.8256 4.37498 20.5442C4.18432 19.2703 4.34586 17.8453 5.02765 16.0871L2.97648 15.2917C2.18749 17.3263 1.94047 19.141 2.19922 20.8698C2.45683 22.591 3.20167 24.1311 4.24037 25.6377L6.05166 24.3891ZM5.02765 16.0871C5.36598 15.2147 6.0812 14.1851 7.07449 13.0581C8.05512 11.9455 9.24502 10.8061 10.4588 9.71056L8.98479 8.0774C7.74727 9.19434 6.48609 10.3985 5.42406 11.6034C4.3747 12.794 3.45571 14.0559 2.97648 15.2917L5.02765 16.0871ZM10.3178 7.96945C9.74125 7.59774 9.35101 6.90293 9.35101 5.73331H7.15101C7.15101 7.40829 7.74131 8.92596 9.12577 9.81851L10.3178 7.96945ZM9.35101 5.73331C9.35101 5.26485 9.54783 4.52839 10.0464 3.92569C10.5115 3.36345 11.2653 2.88247 12.5 2.88247V0.682471C10.5969 0.682471 9.22622 1.46576 8.35129 2.52336C7.50983 3.54051 7.15101 4.77946 7.15101 5.73331H9.35101ZM20.671 31.6446C21.2434 31.6446 22.2182 31.5585 23.084 31.0283C24.0358 30.4453 24.7126 29.4112 24.7126 27.858H22.5126C22.5126 28.6753 22.2089 28.9844 21.935 29.1522C21.5751 29.3726 21.0791 29.4446 20.671 29.4446V31.6446ZM24.7126 27.858C24.7126 26.3393 24.1033 25.2419 23.0327 24.6024C22.0713 24.0282 20.8784 23.9134 19.8539 23.9134V26.1134C20.7905 26.1134 21.4769 26.2357 21.9046 26.4911C22.223 26.6813 22.5126 27.0062 22.5126 27.858H24.7126ZM20.7596 25.6377C21.7982 24.1311 22.5431 22.591 22.8007 20.8698C23.0595 19.141 22.8124 17.3263 22.0234 15.2917L19.9723 16.0871C20.6541 17.8453 20.8156 19.2703 20.6249 20.5442C20.4331 21.8256 19.8706 23.0511 18.9483 24.3891L20.7596 25.6377ZM15.8741 9.81851C17.2586 8.92596 17.8489 7.40829 17.8489 5.73331H15.6489C15.6489 6.90293 15.2587 7.59774 14.6821 7.96945L15.8741 9.81851ZM17.8489 5.73331C17.8489 4.77946 17.4901 3.54051 16.6486 2.52336C15.7737 1.46576 14.403 0.682471 12.5 0.682471V2.88247C13.7346 2.88247 14.4884 3.36345 14.9535 3.92569C15.4521 4.52839 15.6489 5.26485 15.6489 5.73331H17.8489ZM20.671 29.4446H4.32891V31.6446H20.671V29.4446ZM22.0234 15.2917C21.5495 14.0696 20.6459 12.8227 19.6126 11.6452L17.959 13.0963C18.9355 14.209 19.638 15.2251 19.9723 16.0871L22.0234 15.2917ZM19.6126 11.6452C18.5428 10.4261 17.2668 9.20706 16.0151 8.0774L14.5411 9.71056C15.769 10.8188 16.9722 11.9718 17.959 13.0963L19.6126 11.6452ZM18.0211 11.58L11.6477 17.7433L13.177 19.3248L19.5505 13.1615L18.0211 11.58Z" fill="#01010C"/>
</svg>
