<svg width="27" height="32" viewBox="0 0 27 32" fill="none" xmlns="http://www.w3.org/2000/svg">
<path d="M2.06048 27.4712C2.06048 30.0562 4.18496 30.5949 5.16548 30.541H22.1613C23.1418 30.5949 25.2663 30.0562 25.2663 27.4712C25.2663 25.4622 23.2921 24.7222 21.7986 24.5679C21.2121 24.5073 20.6905 24.0486 20.6905 23.4656V17.1315C20.6905 16.5961 21.1295 16.1621 21.671 16.1621H24.6126C25.1541 16.1621 25.5931 15.7281 25.5931 15.1927V2.75188C25.5931 2.21649 25.1541 1.78247 24.6126 1.78247H19.5465C18.7294 1.78247 18.0757 2.52569 18.0757 3.55973C18.0757 2.52569 17.4221 1.78247 16.605 1.78247H10.7218C9.9047 1.78247 9.25101 2.52569 9.25101 3.55973C9.25101 2.52569 8.59733 1.78247 7.78022 1.78247H2.71417C2.17264 1.78247 1.73364 2.21649 1.73364 2.75188V15.1927C1.73364 15.7281 2.17264 16.1621 2.71417 16.1621H5.65575C6.19728 16.1621 6.63627 16.5961 6.63627 17.1315V23.4656C6.63627 24.0486 6.1147 24.5073 5.52814 24.5679C4.03466 24.7222 2.06048 25.4622 2.06048 27.4712Z" fill="#FFFFFF"/>
<path d="M9.25101 3.55973V7.11424M9.25101 3.55973C9.25101 2.52569 8.59733 1.78247 7.78022 1.78247H2.71417C2.17264 1.78247 1.73364 2.21649 1.73364 2.75188V15.1927C1.73364 15.7281 2.17264 16.1621 2.71417 16.1621H5.65575C6.19728 16.1621 6.63627 16.5961 6.63627 17.1315V23.4656C6.63627 24.0486 6.1147 24.5073 5.52814 24.5679C4.03466 24.7222 2.06048 25.4622 2.06048 27.4712C2.06048 30.0562 4.18496 30.5949 5.16548 30.541H22.1613C23.1418 30.5949 25.2663 30.0562 25.2663 27.4712C25.2663 25.4622 23.2921 24.7222 21.7986 24.5679C21.2121 24.5073 20.6905 24.0486 20.6905 23.4656V17.1315C20.6905 16.5961 21.1295 16.1621 21.671 16.1621H24.6126C25.1541 16.1621 25.5931 15.7281 25.5931 15.1927V2.75188C25.5931 2.21649 25.1541 1.78247 24.6126 1.78247H19.5465C18.7294 1.78247 18.0757 2.52569 18.0757 3.55973M9.25101 3.55973C9.25101 2.52569 9.9047 1.78247 10.7218 1.78247H16.605C17.4221 1.78247 18.0757 2.52569 18.0757 3.55973M18.0757 3.55973V7.11424" stroke="#01010C" stroke-width="2.2" stroke-linecap="round" stroke-linejoin="round"/>
</svg>
