<svg width="29" height="32" viewBox="0 0 29 32" fill="none" xmlns="http://www.w3.org/2000/svg">
<path d="M4.22307 28.0027C4.22307 29.9091 6.01033 30.4916 6.90397 30.5446H22.0959C22.9896 30.4916 24.7768 29.9091 24.7768 28.0027C24.7768 26.0962 23.5853 25.6196 22.5427 25.6196C28.5004 21.9656 27.9046 15.4519 27.011 13.3865C26.1174 11.3212 23.1385 7.66722 17.4788 10.0503C17.032 9.57367 16.883 9.47835 16.2873 9.09706V8.46157H17.7767C18.3724 8.46158 19.1171 7.82607 19.1171 6.39624C19.1171 4.9664 18.0745 4.01317 16.5851 4.33089C16.8334 3.43062 16.7638 1.66187 14.4999 1.78897C12.236 1.66187 12.1665 3.43062 12.4148 4.33089C10.9254 4.01317 9.88277 4.9664 9.88277 6.39624C9.88277 7.82607 10.6275 8.46158 11.2232 8.46157H12.7126V9.09706C12.1169 9.47835 11.9679 9.57367 11.5211 10.0503C5.86137 7.66722 2.88255 11.3212 1.98893 13.3865C1.0953 15.4519 0.499508 21.9656 6.45719 25.6196C5.4146 25.6196 4.22307 26.0962 4.22307 28.0027Z" fill="#FFFFFF"/>
<path d="M6.90397 30.5446L6.8389 31.6426L6.87141 31.6446H6.90397V30.5446ZM6.45719 25.6196V26.7196C6.94963 26.7196 7.38207 26.3923 7.51583 25.9184C7.64959 25.4445 7.45207 24.9394 7.0323 24.6819L6.45719 25.6196ZM1.98893 13.3865L0.979373 12.9497L0.979373 12.9497L1.98893 13.3865ZM11.5211 10.0503L11.0943 11.0641C11.5184 11.2427 12.0089 11.1384 12.3236 10.8026L11.5211 10.0503ZM12.7126 9.09706L13.3056 10.0236C13.6215 9.82137 13.8126 9.47214 13.8126 9.09706H12.7126ZM12.7126 8.46157H13.8126C13.8126 7.85406 13.3202 7.36157 12.7126 7.36157V8.46157ZM11.2232 8.46157L11.2232 7.36157L11.2232 7.36157L11.2232 8.46157ZM12.4148 4.33089L12.1853 5.40668C12.5611 5.48685 12.9515 5.36508 13.2151 5.08547C13.4788 4.80586 13.5773 4.40895 13.4752 4.03849L12.4148 4.33089ZM14.4999 1.78897L14.4383 2.88724L14.4999 2.8907L14.5616 2.88724L14.4999 1.78897ZM22.0959 30.5446V31.6446H22.1285L22.161 31.6426L22.0959 30.5446ZM22.5427 25.6196L21.9676 24.6819C21.5478 24.9394 21.3503 25.4445 21.4841 25.9184C21.6178 26.3923 22.0503 26.7196 22.5427 26.7196V25.6196ZM27.011 13.3865L28.0205 12.9497L28.0205 12.9497L27.011 13.3865ZM17.4788 10.0503L16.6763 10.8026C16.991 11.1384 17.4815 11.2427 17.9056 11.0641L17.4788 10.0503ZM16.2873 9.09706H15.1873C15.1873 9.47214 15.3784 9.82137 15.6943 10.0236L16.2873 9.09706ZM16.2873 8.46157V7.36157C15.6797 7.36157 15.1873 7.85406 15.1873 8.46157H16.2873ZM17.7767 8.46157L17.7767 7.36157H17.7767V8.46157ZM16.5851 4.33089L15.5247 4.03849C15.4226 4.40895 15.5211 4.80586 15.7848 5.08547C16.0484 5.36508 16.4388 5.48685 16.8146 5.40668L16.5851 4.33089ZM6.96904 29.4465C6.67517 29.4291 6.21387 29.3155 5.85877 29.0672C5.5513 28.8522 5.32307 28.547 5.32307 28.0027H3.12307C3.12307 29.3648 3.78847 30.3041 4.59805 30.8702C5.35998 31.4029 6.23913 31.6071 6.8389 31.6426L6.96904 29.4465ZM5.32307 28.0027C5.32307 27.2918 5.53412 27.0408 5.65409 26.9407C5.81161 26.8092 6.07923 26.7196 6.45719 26.7196V24.5196C5.79256 24.5196 4.94312 24.6684 4.24423 25.2518C3.50779 25.8666 3.12307 26.8071 3.12307 28.0027H5.32307ZM7.0323 24.6819C4.34687 23.0349 3.16237 20.7727 2.73107 18.6848C2.28952 16.5472 2.64767 14.6341 2.99848 13.8234L0.979373 12.9497C0.436557 14.2043 0.0500014 16.5807 0.576561 19.1298C1.11339 21.7286 2.60982 24.5503 5.88207 26.5573L7.0323 24.6819ZM2.99848 13.8234C3.37759 12.9471 4.20586 11.736 5.50426 11.0105C6.74577 10.3169 8.54741 9.99173 11.0943 11.0641L11.948 9.0365C8.83508 7.72579 6.31744 8.03609 4.43119 9.08998C2.60183 10.1121 1.49388 11.7606 0.979373 12.9497L2.99848 13.8234ZM12.3236 10.8026C12.5308 10.5816 12.6356 10.485 12.7388 10.4043C12.8566 10.3122 12.9934 10.2234 13.3056 10.0236L12.1197 8.17056C11.8362 8.35201 11.6006 8.50152 11.3833 8.67152C11.1513 8.85296 10.9582 9.04239 10.7186 9.29797L12.3236 10.8026ZM13.8126 9.09706V8.46157H11.6126V9.09706H13.8126ZM12.7126 7.36157H11.2232V9.56157H12.7126V7.36157ZM11.2232 7.36157C11.3188 7.36157 11.287 7.40522 11.2003 7.29288C11.1189 7.18745 10.9828 6.9232 10.9828 6.39624H8.78277C8.78277 8.15198 9.77227 9.5616 11.2233 9.56157L11.2232 7.36157ZM10.9828 6.39624C10.9828 5.9486 11.1409 5.68298 11.2999 5.54866C11.4498 5.42212 11.7226 5.30798 12.1853 5.40668L12.6443 3.25509C11.6175 3.03607 10.6243 3.2397 9.88054 3.8678C9.14596 4.48812 8.78277 5.41404 8.78277 6.39624H10.9828ZM13.4752 4.03849C13.3898 3.72891 13.3978 3.36937 13.4992 3.16648C13.5362 3.09256 13.5856 3.03546 13.6798 2.98793C13.7861 2.93429 14.0114 2.86327 14.4383 2.88724L14.5616 0.690699C13.8565 0.651116 13.2242 0.753535 12.6885 1.02392C12.1407 1.30042 11.7638 1.71794 11.5314 2.18285C11.0941 3.05764 11.1915 4.0326 11.3543 4.62329L13.4752 4.03849ZM22.161 31.6426C22.7608 31.6071 23.6399 31.4029 24.4019 30.8702C25.2114 30.3041 25.8768 29.3648 25.8768 28.0027H23.6768C23.6768 28.547 23.4486 28.8522 23.1411 29.0672C22.786 29.3155 22.3247 29.4291 22.0309 29.4465L22.161 31.6426ZM25.8768 28.0027C25.8768 26.8071 25.4921 25.8666 24.7557 25.2518C24.0568 24.6684 23.2073 24.5196 22.5427 24.5196V26.7196C22.9207 26.7196 23.1883 26.8092 23.3458 26.9407C23.4658 27.0408 23.6768 27.2918 23.6768 28.0027H25.8768ZM23.1178 26.5573C26.3901 24.5503 27.8865 21.7286 28.4233 19.1298C28.9499 16.5807 28.5633 14.2043 28.0205 12.9497L26.0014 13.8234C26.3522 14.6341 26.7104 16.5472 26.2688 18.6848C25.8375 20.7727 24.653 23.0349 21.9676 24.6819L23.1178 26.5573ZM28.0205 12.9497C27.506 11.7606 26.3981 10.1121 24.5687 9.08998C22.6825 8.03609 20.1648 7.72579 17.0519 9.0365L17.9056 11.0641C20.4525 9.99173 22.2541 10.3169 23.4956 11.0105C24.794 11.736 25.6223 12.9471 26.0014 13.8234L28.0205 12.9497ZM18.2813 9.29797C18.0417 9.0424 17.8486 8.85296 17.6166 8.67152C17.3993 8.50152 17.1637 8.35201 16.8802 8.17056L15.6943 10.0236C16.0065 10.2234 16.1433 10.3122 16.2611 10.4043C16.3643 10.485 16.4691 10.5816 16.6763 10.8026L18.2813 9.29797ZM17.3873 9.09706V8.46157H15.1873V9.09706H17.3873ZM16.2873 9.56157H17.7767V7.36157H16.2873V9.56157ZM17.7766 9.56157C19.2276 9.5616 20.2171 8.15198 20.2171 6.39624H18.0171C18.0171 6.9232 17.881 7.18745 17.7996 7.29288C17.7129 7.40522 17.6812 7.36157 17.7767 7.36157L17.7766 9.56157ZM20.2171 6.39624C20.2171 5.41404 19.8539 4.48812 19.1194 3.8678C18.3756 3.2397 17.3824 3.03607 16.3556 3.25509L16.8146 5.40668C17.2773 5.30798 17.5501 5.42212 17.7 5.54866C17.859 5.68298 18.0171 5.9486 18.0171 6.39624H20.2171ZM17.6456 4.62329C17.8084 4.03259 17.9058 3.05762 17.4685 2.18284C17.2361 1.71793 16.8592 1.30042 16.3114 1.02391C15.7757 0.753535 15.1433 0.651116 14.4383 0.690699L14.5616 2.88724C14.9885 2.86327 15.2138 2.93429 15.3201 2.98794C15.4143 3.03546 15.4637 3.09257 15.5007 3.16649C15.6021 3.36938 15.6101 3.72892 15.5247 4.03849L17.6456 4.62329ZM22.0959 29.4446H6.90397V31.6446H22.0959V29.4446Z" fill="#01010C"/>
</svg>
