<svg width="25" height="32" viewBox="0 0 25 32" fill="none" xmlns="http://www.w3.org/2000/svg">
<path d="M1.38733 27.7785C1.38733 30.1182 3.40286 30.5947 4.32891 30.5406H20.671C21.5971 30.5947 23.6126 30.1182 23.6126 27.7785C23.6126 25.5922 21.8526 25.0606 20.8662 25.0887C20.7384 25.0923 20.6094 25.0726 20.4967 25.0126C18.5189 23.9598 18.0334 22.534 17.2392 20.9547C16.8021 20.0856 16.3898 18.6555 16.1443 17.7826C16.0364 17.3987 16.2862 16.9741 16.6518 16.8106C18.6036 15.9378 20.671 13.3377 20.671 9.58137C20.671 5.35701 16.7489 1.78247 12.5 1.78247C8.25101 1.78247 4.32891 5.35701 4.32891 9.58137C4.32891 13.3377 6.39631 15.9378 8.3481 16.8106C8.71374 16.9741 8.96356 17.3987 8.85561 17.7826C8.61014 18.6555 8.1978 20.0856 7.76075 20.9547C6.96647 22.534 6.48103 23.9598 4.50319 25.0126C4.39049 25.0726 4.26148 25.0923 4.13368 25.0887C3.14734 25.0606 1.38733 25.5922 1.38733 27.7785Z" fill="#FFFFFF" stroke="#01010C" stroke-width="2.2" stroke-linecap="round" stroke-linejoin="round"/>
</svg>
