<svg xmlns="http://www.w3.org/2000/svg" viewBox="0 0 48 48" width="48" height="48" role="img" aria-label="ChessCoin logo"><defs><linearGradient id="ccLogoGold" x1="0" y1="0" x2="0" y2="1"><stop offset="0%" stop-color="#F0C85A"></stop><stop offset="100%" stop-color="#A07830"></stop></linearGradient></defs><circle cx="24" cy="24" r="23" fill="#0D0D12" stroke="url(#ccLogoGold)" stroke-width="1.4"></circle><g transform="translate(24 28) scale(.95)" fill="url(#ccLogoGold)"><path d="M -8 9 C -8 7.5 -7.2 6.8 -6 6.4 L -6.4 3 C -6.8 1.5 -6.3 -0.2 -5 -1 L -6 -2.2 C -7 -3.4 -6.7 -5 -5.6 -5.8 L -1.3 -9.5 C -0.2 -10.5 1.4 -10.8 2.7 -10.2 L 2.7 -11.4 C 2.7 -12 3.1 -12.3 3.6 -12.1 L 4.6 -11.6 C 5.1 -11.4 5.2 -11 5.1 -10.6 L 4.7 -9.3 C 6.3 -8.3 7.5 -6.5 8 -4.5 L 8.7 1 C 9 3 8.8 4.8 8.2 6.4 L 7.8 7.5 L 8.4 9 Z"></path><circle cx="0" cy="-5" r=".7" fill="#0D0D12"></circle></g></svg>